<?xml version="1.0" encoding="UTF-8"?>
<svg width="1024" height="1024" viewBox="0 0 270.93333 270.93334" version="1.1" xmlns="http://www.w3.org/2000/svg"
   xmlns:svg="http://www.w3.org/2000/svg">
   <circle style="fill:#015d4c" cx="135.46667" cy="135.46667" r="128.32292" />
   <circle style="fill:#88c94b" cx="135.46666" cy="135.46666" r="119.0625" />
   <circle style="fill:#ffffff" cx="135.46666" cy="135.46666" r="111.125" />
   <circle style="fill:#005d4c" cx="135.46666" cy="135.46666" r="99.21875" />
   <g style="fill:#86c02d">
      <path
         d="m 183.61707,65.089243 c 0,0 -2.0894,2.861564 -2.27108,3.588311 -0.18169,0.726747 -1.4535,4.201504 -3.49747,5.700418 -2.04398,1.498915 -4.42861,2.99783 -5.51873,3.452046 -1.09013,0.454218 -6.11518,2.522495 -6.43746,2.575472 -0.32227,0.05298 -1.03397,0.02846 -1.03397,0.02846 0,0 0.071,-0.383426 0.68164,-1.050866 0.61064,-0.667444 2.24374,-2.754977 3.01059,-5.055526 0.76685,-2.300547 1.83192,-5.254337 0.76685,-6.376207 -1.06507,-1.121873 -1.37144,-1.474346 -1.37144,-1.474346 0,0 -1.8935,1.904984 -4.92498,1.336583 -3.03148,-0.568405 -6.39453,-1.720999 -7.75238,-2.74728 -1.35785,-1.026282 -1.68942,-1.67363 -1.68942,-1.67363 0,0 0.75787,-0.852604 2.81044,-0.852604 2.05256,0 5.5735,0.03158 7.1524,0.584192 1.57889,0.552611 2.22624,0.536824 2.22624,0.536824 l -0.79187,-0.950873 c 0,0 -8.08907,-2.783589 -10.23598,-8.407543 -2.1469,-5.623957 -2.17024,-7.72419 -2.17024,-7.72419 0,0 6.72074,1.096791 10.29114,5.483942 3.5704,4.387151 2.26713,9.15022 2.26713,9.15022 0,0 1.59871,0.692772 2.34477,1.385544 0.74606,0.692771 1.81187,1.527651 1.81187,1.527651 0,0 -0.51514,-2.451349 -0.33751,-4.369795 0.17764,-1.918446 2.89544,-5.861918 2.89544,-5.861918 0,0 3.10859,4.778352 1.56317,8.881695 -1.54541,4.103344 -1.49212,4.849405 -1.47436,5.613231 0.0178,0.763828 0.17764,1.723051 0.17764,1.723051 0,0 2.327,-1.350018 4.58295,-2.327005 2.25595,-0.976987 6.92462,-2.695858 6.92462,-2.695857 z" />
      <path
         d="m 103.20642,213.19282 c 0,0 -9.331596,1.79827 -13.584273,1.50666 -4.252677,-0.29161 -10.303631,-2.67311 -11.129864,-2.52731 -0.826236,0.14581 -1.336556,0.46172 -1.336556,0.46172 0,0 -0.145807,-2.30859 -0.121505,-3.37784 0.02429,-1.06924 0.0486,-2.06559 0.0486,-2.06559 0,0 1.67677,-0.0729 2.235692,0.24301 0.558924,0.31592 0.267311,0.55893 2.430102,0.12151 2.162792,-0.43742 7.703423,-1.70107 11.9561,-0.0486 4.252677,1.65247 6.828584,3.25633 7.509014,3.88816 0.68043,0.63183 1.99269,1.79828 1.99269,1.79828 z" />
      <path
         d="m 192.95791,125.66211 c 0,0 -0.58294,5.28741 -2.57494,8.38971 -1.992,3.10229 -0.8817,2.67777 -4.44118,6.33521 -3.55948,3.65745 -5.19226,5.42086 -5.19226,5.42086 0,0 -0.62046,-6.72709 0.81639,-9.73142 1.43685,-3.00432 3.6901,-6.00865 5.976,-7.44551 2.2859,-1.43685 5.41599,-2.96885 5.41599,-2.96885 z" />
      <path
         d="m 130.8429,115.89024 c 0,0 2.42091,-1.70888 5.98106,-1.31014 3.56016,0.39874 9.37034,-2.87661 9.37034,-2.87661 0,0 -1.28166,-0.68355 -1.50951,-1.13925 -0.22785,-0.4557 -0.56962,-1.59495 -4.44308,-2.02216 -3.87345,-0.42722 -8.03171,0.25633 -8.91463,3.07597 -0.88292,2.81965 -0.48418,4.27219 -0.48418,4.27219 z" />
      <path
         d="m 371.48047,192.12109 c 0,0 -2.01682,3.58305 -4.92774,20.75 -2.9109,17.16696 -0.67189,28.51076 2.46289,37.01953 3.13483,8.50884 17.01758,16.86915 17.01758,16.86915 l 1.56836,6.12109 c 0,0 -13.73321,-9.32996 -34.4082,-14.55469 -20.67498,-5.22471 -29.00391,2.91797 -29.00391,2.91797 0,0 11.50557,6.09163 27.91797,16.58203 16.4124,10.4904 38.38086,8.1836 38.38086,8.1836 0,0 -0.48369,6.14159 -1.64453,9.33398 -1.16088,3.19239 -5.12695,12.09375 -5.12695,12.09375 0,0 3.53077,-0.0978 9.86718,3.38477 6.33642,3.4826 3.67579,7.11132 3.67579,7.11132 0,0 2.42012,-0.43656 4.5,-0.33984 2.07991,0.0967 3.30179,-0.3878 21.38671,12.66211 18.08493,13.04991 32.97657,18.7793 32.97657,18.7793 0,0 -0.0775,6.27582 0.70703,15.0625 0.78451,8.78665 5.64904,14.43574 5.49219,20.00586 -0.15693,5.57011 12.47231,17.57253 13.02148,20.78906 0.54917,3.21653 2.5894,5.64934 7.375,8.23828 4.7856,2.5889 9.57189,-1.41335 12.00391,-4.39453 2.43201,-2.98118 9.49151,-8.23708 10.11914,-8.55078 0.62763,-0.31382 5.10033,-3.60815 15.2207,-14.19922 10.12033,-10.5911 28.11842,-21.13502 30.17773,-21.33594 2.05936,-0.20091 6.27453,5.20813 12.37696,9.58594 6.10238,4.37781 11.54219,7.29715 24.54297,4.11328 13.00082,-3.18386 18.30702,-1.85716 30.64453,13.79687 12.33747,15.65401 46.73437,41.64649 46.73437,41.64649 0,0 -12.66039,22.31452 -6.64648,27.53711 6.01391,5.22262 -2.83786,23.52744 -1.40039,43.2207 1.43747,19.69327 -1.00669,24.72441 -2.58789,33.63672 -1.58121,8.91228 -1.43826,23.57322 -0.86328,47.00391 0.0703,2.8679 0.11183,5.69202 0.12695,8.47265 l -4.70703,-0.55859 c 0,0 -4.93084,-15.3508 -20.09571,-26.70117 -15.1649,-11.35042 -39.81837,-19.81641 -39.81835,-19.81641 0,0 4.18549,37.49205 20.46679,45.86523 16.2813,8.37325 22.5155,9.76876 29.1211,9.67579 6.60555,-0.093 15.00586,-0.0899 15.00585,-0.0899 -0.18377,16.59534 -1.10424,31.72039 -1.5371,46.11328 -0.29035,9.65398 -0.88769,14.02524 -1.79493,16.38672 0,0 -6.65168,-3.56569 -10.84375,-6.30664 -4.19202,-2.74095 -11.04492,-8.46484 -11.04492,-8.46484 0,0 1.04822,-15.64101 -8.22265,-29.3457 -9.27088,-13.7048 -25.31446,-18.86329 -25.31446,-18.86329 0,0 -1.12796,3.46577 -1.85351,8.30274 -0.72552,4.837 4.19251,22.00833 6.36914,27.49023 2.17663,5.4819 6.69164,16.93097 16.60742,16.44727 9.91582,-0.48371 33.86523,19.32226 33.86523,19.32226 0,0 -2.13277,14.93409 -5.97265,35.98243 -3.83993,21.04837 -9.09375,48.02148 -9.09375,48.02148 0,0 -1.73197,-0.0176 -3.31446,-0.0176 -1.58245,0 -4.4027,3.1645 -3.43945,11.2832 0.96325,8.11873 -2.34008,14.92999 -2.61523,20.64063 -0.27519,5.71064 -5.64258,6.94922 -5.64258,6.94922 -3.11441,1.53256 -4.84476,0.49371 -9.04688,5.28906 -4.20211,4.79539 -31.91796,12.66992 -31.91797,12.66992 10e-6,0 12.49315,-16.0782 23.74805,-34.7539 11.25491,-18.67574 1.60742,-45.01953 1.60742,-45.01953 0,0 -6.06104,8.1632 -9.77148,15.95507 -3.7104,7.79184 -4.20372,1.36062 -12.49023,19.04688 -8.28658,17.6863 -8.41186,28.07594 -6.55665,31.16797 1.85519,3.09199 0.99024,6.67773 0.99024,6.67773 l -5.07031,8.03906 c 0,0 -3.7102,0.86603 -7.66797,1.85547 -3.95773,0.98933 -8.90625,1.36133 -8.90625,1.36133 0,0 7.05058,-13.97752 14.71875,-57.26562 7.66817,-43.2881 2.36328,-66.39063 2.36328,-66.39063 0,0 3.82576,1.85484 21.69922,3.16992 17.87346,1.31513 45.08789,-26.08398 45.08789,-26.08398 0,0 -18.63784,-7.83744 -39.36719,-1.56641 -20.72931,6.27107 -27.63281,17.6875 -27.63281,17.6875 0,0 0.32063,-18.49545 -2.03125,-28.4375 -2.35204,-9.94208 -0.10503,-20.6322 -2.0293,-34.20898 -1.92427,-13.57682 0.10606,-66.17369 2.24414,-67.34961 2.13808,-1.17596 3.74219,-27.58008 3.74219,-27.58008 l 22.3418,-13.79102 v -5.77343 l 2.88672,-4.81055 c 0,0 2.13734,4.49039 7.91015,8.55274 5.77281,4.06228 11.11868,7.48298 23.51953,-2.88672 12.40086,-10.36967 11.86719,-17.63868 11.86719,-17.63868 0,0 -4.06237,2.88539 -19.34961,3.41993 -15.28728,0.5345 -19.0293,-2.24414 -19.0293,-2.24414 l -36.20312,-11.83594 c 0,0 -10.51171,1.29495 -15.84375,2.66601 -5.33205,1.3711 -21.7852,1.29493 -23.30859,1.9043 -1.52346,0.60937 0.76168,8.15022 5.4082,8.22656 4.64647,0.0762 13.02539,12.26368 21.63281,12.87305 8.60746,0.60937 5.17969,19.42383 5.17969,19.42383 0,0 -1.52342,-0.22853 -8.83594,1.52344 -7.31252,1.75192 -9.6738,1.75193 -14.32031,3.04687 -4.64648,1.2949 -5.17964,3.12303 -17.13867,8.60742 -11.959,5.48436 -11.95899,7.92188 -11.95899,7.92188 0,0 21.63278,12.79689 27.26953,9.06445 5.63671,-3.73243 8.04572,1.0545 11.85742,1.39648 3.81177,0.34209 10.60547,-6.30468 10.60547,-6.30468 0,0 0.81911,1.22732 -0.71289,11.29492 -1.53203,10.06764 -1.88944,96.72931 3.75196,121.33203 5.64139,24.60272 0.4707,38.70508 0.4707,38.70508 0,0 -11.28378,-16.84449 -21.15625,-27.34375 -9.87243,-10.49926 -24.31466,-16.87156 -38.15234,-22.66406 -13.83772,-5.79255 -23.79406,-18.22128 -23.89649,-22.36719 -0.10239,-4.14588 19.76695,-13.12859 24.7461,-16.02344 4.97905,-2.89485 6.13671,-1.85156 6.13671,-1.85156 0,0 -3.93736,-10.65418 4.51563,-19.57031 8.4528,-8.91614 8.33789,-20.26368 8.33789,-20.26368 0,0 -10.88603,1.27342 -19.91797,2.89454 -9.03194,1.62111 -18.71484,11.6582 -18.71484,11.6582 l -33.95313,-4.6211 c 0,0 -1.33274,10.8952 -1.09765,13.7168 0.23512,2.82161 9.01278,12.38449 10.50195,14.89258 1.48921,2.50809 -5.56436,5.32875 -18.88867,3.91797 -13.32431,-1.41082 -22.41559,-7.44546 -30.41016,-8.62109 -7.99457,-1.17566 -8.54297,7.05468 -8.54297,7.05468 0,0 -0.47056,-3.99769 -1.72461,-11.36523 -1.25416,-7.36755 -1.33274,-26.88455 -1.09765,-32.99805 0.23516,-6.1135 -1.49024,-30.09766 -1.49024,-30.09766 0,0 16.5383,11.75801 25.23828,12.30665 8.69998,0.54867 12.30664,3.83984 12.30664,3.83984 0,0 1.2537,-0.4701 -1.09765,-9.71875 -2.35136,-9.24862 -16.30595,-16.95169 -21.98242,-19.28906 -5.67644,-2.33738 -5.65653,-5.04012 -6.60743,-8.47461 -0.44398,-2.21598 5.34934,-9.92112 5.96094,-10.62305 1.00789,-1.41105 4.32796,-4.19129 11.18164,-5.19922 6.85372,-1.00788 14.61475,-10.17915 24.9961,-21.06445 10.38134,-10.88531 20.6621,-36.78906 20.66211,-36.78906 0,0 -8.77002,3.8292 -12.39844,4.73632 -3.62842,0.90713 -10.1801,8.66948 -19.15039,9.375 -8.9703,0.70553 -25.19586,24.79385 -28.32032,28.22071 -2.38386,2.6146 -2.89998,14.22394 -1.16601,18.90625 -0.7513,0.4591 -7.42969,8.68164 -7.42969,8.68164 0,0 -0.69785,0.52136 -2.07617,-3.93164 -1.37832,-4.45304 -2.39063,-69.07032 -2.39063,-69.07031 0,0 3.09267,-0.93384 10.73438,-3.61719 7.64175,-2.68335 13.30078,0.52539 13.30078,0.52539 0,0 1.69113,-2.80013 3.38281,-3.9668 1.69172,-1.16666 10.79085,-4.54982 14.69922,-6.5332 3.90837,-1.98335 16.35348,-3.01066 23.27735,-3.75391 6.92386,-0.74324 34.22851,5.51563 34.22851,5.51563 0,0 -0.73685,1.414 -7.68555,12.72265 -6.94869,11.30869 -5.72202,28.88602 -3.26953,44.55469 2.45246,15.66864 22.61719,39.64844 22.61719,39.64844 0,0 5.85768,-31.61039 0.27149,-52.32031 -5.58622,-20.70985 -8.62696,-48.31641 -8.62696,-48.31641 0,0 -4.78926,0.13261 -10.24414,-1.99609 -5.45484,-2.12875 -6.91917,-13.50381 -19.625,-22.48438 -12.70583,-8.98053 -23.34967,-4.59081 -31.13281,-1.79687 -7.78314,2.79394 -18.89125,16.69755 -26.3418,24.34765 -7.45054,7.65011 -15.43359,9.58008 -15.43359,9.58008 0,0 -1.7952,-16.49732 -3.85742,-26.94141 -2.06219,-10.44404 1.46484,-19.49804 1.46484,-19.49804 0,0 2.05347,0.83768 5.21875,3.55078 3.16532,2.71309 11.64372,1.69641 27.24414,-11.86914 15.60042,-13.56556 16.95703,-31.08789 16.95703,-31.08789 0,0 -9.04473,-0.11273 -20.23633,4.86133 -11.19156,4.97396 -26.11328,24.1914 -26.11328,24.1914 l -17.43164,-4.45508 c 0,0 -4.17844,0.63221 -8.35547,-4.17773 -4.17704,-4.81039 -4.34775,-7.47207 -22.88672,-4.7832 -18.53896,2.68886 -15.70898,11.32226 -15.70898,11.32226 0,0 0.49539,-10e-4 4.31641,-0.14258 3.821,-0.14154 8.63281,5.02344 8.63281,5.02344 0,0 -7.85482,0.0718 -31.77149,-0.14062 -23.91668,-0.2123 -35.94531,13.72656 -35.94531,13.72656 -2.43003,-15.35339 -9.57356,-25.19574 0.35352,-35.73242 6.22683,-8.56186 10.54297,-29.43555 10.54297,-29.43555 0,0 1.84067,4.73996 19.95507,10.9668 18.11441,6.22684 35.87891,-0.31446 35.87891,-0.31446 0,0 -4.38548,-2.8152 -6.87891,-5.95508 -2.49342,-3.1398 -16.84725,-11.30122 -24.83789,-15.99414 -7.99064,-4.69291 -16.61718,-8.11718 -16.61718,-8.11718 0,0 6.59646,-9.89178 9.51367,-15.34571 2.91722,-5.45393 12.81054,-25.11523 12.81054,-25.11523 0,0 -16.10868,8.75247 -23.71874,11.41602 -7.61014,2.66349 -13.69727,16.36132 -13.69727,16.36132 l -30.69531,9.51368 c 0,-10e-6 -3.9322,7.22834 -8.75196,15.47265 -4.81974,8.24431 -14.71289,14.58594 -14.71289,14.58594 0,0 15.85413,5.45461 22.83008,4.94726 6.97595,-0.50733 10.27539,-7.99023 10.27539,-7.99023 1.92581,8.67693 6.79429,24.55758 -0.61328,31.45117 -5.62178,4.36177 -10.66157,-5.23348 -26.16992,-9.78906 -15.50835,-4.55558 -33.92455,2.9083 -41.29102,7.07617 -7.36646,4.16784 -12.69726,4.8457 -12.69726,4.8457 0,0 4.07134,2.90778 16.67187,8.82032 12.60053,5.91254 37.5095,6.78542 52.53321,-0.19336 15.0237,-6.97875 18.41796,-0.67969 18.41796,-0.67969 2.73778,12.39402 6.71875,30.00391 6.71875,30.00391 0,0 -6.72225,-7.10362 -4.18554,9.63867 2.53671,16.74228 22.32422,46.80273 22.32422,46.80273 0,0 -6.21602,-2.40943 -18.01172,-5.83398 -11.79571,-3.42456 -23.97266,0 -23.97266,0 0,0 -3.93107,-13.82607 -20.16601,-30.56836 -16.23495,-16.74229 -28.15753,-15.98077 -33.73829,-16.23438 -5.58077,-0.25364 -9.13281,11.16211 -9.13281,11.16211 l 22.57813,22.32227 c 0,0 4.05751,-4.18555 7.10156,-4.18555 3.04406,0 20.16683,8.24457 31.58203,23.46485 11.4152,15.22027 21.00096,19.47282 28.67383,20.95507 7.67288,1.48226 12.29345,-8.19589 16.74023,-8.2832 4.44678,-0.0872 10.20055,10.02767 14.9961,14.21289 4.79554,4.18519 2.87892,1.74438 4.09961,9.33008 1.22069,7.5857 6.53824,13.07782 -11.59766,11.33398 -18.13589,-1.74383 -17.61281,-7.06168 -23.89063,-9.15429 -6.27775,-2.09261 -11.76953,6.01562 -11.76953,6.01562 0,0 -9.6798,-7.6725 -18.22461,-13.60156 -8.54479,-5.92902 -23.54101,-1.39648 -23.54101,-1.39649 0,0 -0.005,-0.65735 -1.44727,-2.92382 -1.44229,-2.26647 -3.09018,-2.67969 -8.44726,-2.67969 -5.35707,0 -11.33203,-5.15039 -11.33203,-5.15039 l -21.42774,2.47266 c 0,-10e-6 0.61671,1.23657 -6.80078,4.94531 -7.41749,3.70873 -21.83984,1.23633 -21.83984,1.23633 0,0 -0.8243,0.82378 12.98047,9.27148 13.80478,8.4477 32.3496,5.35742 32.3496,5.35742 10e-6,0 1.85382,0.82319 5.5625,15.2461 3.70875,14.42286 11.94922,28.22851 11.94922,28.22851 0,0 -11.74381,6.59304 -21.83984,10.91992 -10.09603,4.32688 -10.50781,7.21094 -10.50781,7.21094 0,0 -0.20632,2.06163 10.91992,3.91602 11.12623,1.85435 33.37891,-8.6543 33.37891,-8.6543 0,0 22.66525,20.81055 41.20898,35.85156 18.54373,15.04105 70.42383,21.32813 70.42383,21.32813 l 13.87305,44.50976 c -10e-6,0 -0.59916,-0.10022 -2.89454,-0.79883 -2.29539,-0.6986 -7.7832,-4.78906 -7.7832,-4.78906 l 14.37109,15.16797 c 0,0 2.69323,7.68509 10.97657,24.35156 8.28333,16.66647 16.66601,30.63868 16.66601,30.63868 0,0 -7.9821,-3.89174 -16.36523,-6.38672 -8.38314,-2.49498 -31.63762,-12.37519 -37.32617,-15.36914 -5.68856,-2.99399 -11.37696,-2.59571 -11.37696,-2.59571 0,0 -2.89401,-3.99097 -4.1914,-6.68554 -1.29739,-2.69458 -2.99385,-12.0762 -1.09766,-19.26172 1.89618,-7.18557 7.18557,-17.16663 11.27734,-17.86524 4.09177,-0.69857 13.77149,-10.47851 13.77149,-10.47851 0,0 -9.18031,2.99385 -17.06445,5.18945 -7.88414,2.19557 -8.28321,9.58203 -8.28321,9.58203 0,0 -1.69689,-2.89566 -9.08203,-2.29687 -7.38514,0.59879 -6.6875,9.08203 -6.6875,9.08203 0,0 2.39615,1.09887 -3.5918,-1.59571 -5.98796,-2.69457 -7.78515,-10.97851 -7.78515,-10.97851 l -39.71875,-6.48633 c 0,0 -6.4882,0.29818 -22.95508,-4.49219 -16.46687,-4.79036 -27.74414,-2.59375 -27.74414,-2.59375 0,0 1.39676,3.09407 6.38672,12.17578 4.98996,9.08176 17.26612,17.56429 33.43359,21.75586 16.16748,4.19158 32.73438,0.69922 32.73438,0.69922 l 16.16797,4.29102 c 0,0 -10.48058,3.19277 -19.66211,13.77148 -9.18152,10.57871 -12.57422,31.63672 -12.57422,31.63672 0,0 9.48159,-3.59365 19.16211,-8.7832 9.68053,-5.18956 16.85547,-22.41016 16.85547,-22.41016 0,0 4.31609,2.07345 9.15039,3.97266 4.83428,1.89917 10.18554,0.51758 10.18554,0.51758 0,0 0.34682,2.07119 -2.93359,8.80468 -3.28041,6.7335 -5.00859,20.7186 -4.83594,35.91211 0.17265,15.19351 3.10907,16.05664 7.94336,16.05664 4.83429,0 8.97955,-7.96586 11.82227,-18.34179 2.84271,-10.3759 -0.14063,-34.82422 -0.14063,-34.82422 0,0 13.36055,10.23406 26.29492,15.77734 12.93437,5.54332 25.4427,7.53348 36.5293,12.65039 11.0866,5.11688 13.21703,13.36156 28.99414,32.26563 15.77707,18.9041 34.11387,24.44758 36.81445,26.4375 2.70059,1.98988 4.1211,6.11133 4.1211,6.11133 0,0 -10.94403,13.07668 -19.33008,22.03125 -8.38602,8.95457 -15.06641,23.45117 -15.06641,23.45117 l 7.53321,2.13281 c 0,0 8.38639,-8.10229 16.98047,-19.50195 8.09956,-13.19932 22.99804,-25.39844 22.99804,-25.39844 0,0 21.39954,4.70007 34.79883,6 13.39926,1.30008 42.19727,1.19922 42.19727,1.19922 0,0 5.70025,12.0998 10,23.19922 4.29978,11.09941 4.79882,22 4.79882,22 h 5.30079 c 2.89984,0 5.69921,-1.30078 5.69921,-1.30078 0,0 0.69913,-6.79883 -0.80078,-14.39844 -1.49994,-7.59961 -11.49804,-32.49805 -11.49804,-32.49805 0,0 21.19886,-1.50169 28.89843,-3.60156 7.69962,-2.09991 29.29883,-12.09766 29.29883,-12.09766 0,0 0.5999,-0.10112 5.59961,15.49805 4.99975,15.59917 13.99875,22.80006 20.39844,23 6.39965,0.20001 7.59889,-4.40009 7.79883,-6 0.19997,-1.59991 0.40015,-8.89928 -3.59961,-9.69922 -3.9998,-0.79997 -6.89844,5.89844 -6.89844,5.89844 0,0 -4.50045,-5.49854 -5.90039,-14.49805 -1.39994,-8.99951 -5,-18.59961 -5,-18.59961 0,0 25.79832,-18.19837 30.99805,-22.99804 5.19972,-4.79978 22.69921,-26.79883 22.69921,-26.79883 0,0 -1.20036,10.39952 -0.40039,23.29883 0.79994,12.89927 9.69922,24.49804 9.69922,24.49804 l 8,-4.09961 c 0,0 5.09911,-10.9996 10.79883,-26.29883 5.69968,-15.29918 1.81641,-33.1875 1.81641,-33.1875 0,0 2.3503,-3.98682 6.26562,-0.92578 3.91533,3.06108 -0.15974,2.77421 2.80469,8.44532 2.96443,5.67106 14.43561,9.53742 29.12891,11.98632 14.69325,2.44887 21.65245,1.15962 22.42578,-2.70703 0.77336,-3.86664 -10.82627,-15.59475 -25.13281,-22.68359 -14.30661,-7.08888 -34.15625,0 -34.15626,0 0,0 -0.51529,-18.94658 1.80469,-28.22656 2.31999,-9.27995 15.06061,-36.83259 19.67383,-39.64063 4.61322,-2.80804 37.00586,-3.71094 37.00586,-3.71094 0,0 -0.70218,7.22025 -4.3125,16.2461 -3.61036,9.02585 -2.80859,19.15429 -2.80859,19.15429 0,0 10.22879,-6.91828 16.54687,-10.6289 6.31809,-3.71063 13.23828,-16.84961 13.23828,-16.84961 0,0 1.10281,5.11477 11.03125,14.14062 9.92844,9.02586 27.37891,8.12305 27.37891,8.12305 0,0 -2.69531,-6.81053 -8.0625,-13.51953 -5.36719,-6.709 -13.4668,-14.50391 -13.4668,-14.50391 0,0 9.32386,-4.50464 10.83008,-6.55859 1.50622,-2.05391 7.66704,-7.53203 10.81641,-9.58594 3.14933,-2.05394 10.4082,-9.99414 10.4082,-9.99414 l -19.30859,-1.78125 c 0,0 -6.16022,5.06651 -11.22657,4.92969 -5.06634,-0.13693 -10.13281,2.32812 -10.13281,2.32812 l 4.24414,-11.63867 -33.48242,-0.82226 c 0,0 0.12545,10.36448 -10.23828,16.30468 -10.36373,5.94017 -26.79297,9.60547 -26.79297,9.60547 l -1.51758,-1.39062 4.17188,-26.28907 c 0,0 4.04313,-6.82392 6.69726,-11.12109 2.6541,-4.29717 7.07818,-16.17758 7.96289,-22.24414 0.88471,-6.06659 9.22551,-33.24162 8.97266,-37.0332 -0.25278,-3.79162 2.6543,-13.52344 2.6543,-13.52344 0,0 19.71647,25.91015 31.8496,29.82813 12.13316,3.91794 9.85797,7.71025 31.34376,-2.90626 21.48572,-10.61644 26.92187,-28.18554 26.92187,-28.18554 0,0 -24.01339,0.88513 -37.03125,2.27539 -13.01786,1.39022 -26.03711,16.42969 -26.03711,16.42969 0,0 -8.34104,-5.30804 -14.28125,-9.98438 -5.94021,-4.67633 -10.74219,-19.33594 -10.74219,-19.33594 l 5.3086,-25.7832 c 0,0 -0.12808,6.06554 8.33984,14.1543 8.46792,8.08879 28.81641,12.00781 28.81641,12.00781 0,0 -2.27437,-3.66475 -3.79102,-10.36328 -1.51665,-6.6985 -4.17024,-14.53606 -13.39648,-24.77344 -9.22625,-10.23734 -20.22266,-11.8789 -20.22266,-11.87891 l 4.80274,-10.23828 c -10e-6,0 11.12223,-6.69826 16.17773,-13.90234 5.0555,-7.20404 3.28576,-22.74981 -0.50586,-32.73438 -3.79162,-9.9845 -2.90625,-15.92382 -2.90625,-15.92382 0,0 7.32954,-5.68724 16.80859,-9.98438 9.47902,-4.29717 18.1996,-18.07397 24.39258,-27.17383 6.19295,-9.09986 7.58399,-31.59765 7.58399,-31.59765 0,0 -3.41332,0.5065 -14.15625,6.32031 -10.7429,5.8138 -17.94631,14.5345 -25.15039,26.16211 -7.20405,11.6276 -11.1211,31.2168 -11.1211,31.2168 0,0 -2.65466,-15.54453 -4.04492,-26.79297 -1.39026,-11.24847 -10.61626,-21.99286 -13.01758,-23.88867 -2.40136,-1.89581 -9.60561,-10.23741 -8.3418,-18.32618 1.26388,-8.08876 -0.75781,-9.22461 -0.75781,-9.22461 0,0 17.94697,-4.80273 26.16211,-4.80273 8.21518,0 14.28125,-4.80273 14.28125,-4.80273 0,0 -20.60152,-10.48993 -24.51953,-9.98438 -3.91801,0.50555 -19.11719,11.23828 -19.11719,11.23828 l 38.09571,-44.64062 c 0,0 -0.29534,-5.3e-4 -11.02149,-1.92383 -10.72615,-1.92331 -17.4582,5.39974 -23.7832,6.14453 -6.32497,0.74479 -8.50391,-4.9082 -8.50391,-4.9082 l -28.33398,23.99414 c 0,0 -9.53419,6.09285 -18.8711,7.76367 -9.33694,1.67081 -7.27132,1.67084 -11.89062,5.50391 -4.61934,3.83305 5.79863,5.99609 7.66602,5.99609 1.86732,0 15.33118,6.87919 22.50585,8.05859 7.17468,1.1794 4.91407,5.40625 4.91407,5.40625 0,0 -3.04582,1.76818 -9.33594,6.87891 -6.29015,5.11074 -14.84057,14.54727 -15.03711,21.52539 -0.19657,6.97812 3.33984,21.13086 3.33984,21.13086 0,0 0.49325,-1.96668 2.16407,-4.12891 1.67081,-2.16223 6.78121,-8.15632 14.74218,-19.16406 7.96094,-11.00774 9.72852,-26.14453 9.72852,-26.14453 0,0 2.55705,-6.9e-4 4.32617,-0.19727 1.76908,-0.19656 4.22461,-1.08007 4.22461,-1.08007 0,0 6.09453,10.02436 9.33789,13.85742 3.24337,3.83305 6.38815,22.01503 12.28516,30.36914 5.89701,8.35408 13.75781,34.64062 13.75781,34.64062 0,0 -0.34395,0.27397 -2.54492,0.0332 -2.20101,-0.24072 -8.54137,-7.40161 -20.92578,-13.69532 -12.38438,-6.2937 -14.81987,2.5718 -3.58594,11.97852 11.23393,9.40671 29.97849,7.51172 29.97852,7.51172 -10e-6,0 2.23437,4.39736 2.23437,8.72851 0,4.33115 -6.09961,22.24024 -6.09961,22.24024 0,0 0.60374,0.0751 1.23242,0.10156 0.62873,0.0251 1.89453,1.63867 1.89453,1.63867 l -0.11132,4.78907 c 0,0 -2.56019,1.55835 -4.23047,2.67187 -1.67029,1.11352 -5.23438,5.45703 -5.23438,5.45703 l -2.0039,23.27344 c 0,0 -5.91362,-3.8682 -6.83008,-6.24024 -0.91646,-2.37203 -4.36524,-4.85156 -4.36524,-4.85156 0,0 -2.91253,3.07317 -2.26562,7.0625 0.64694,3.98933 7.76367,17.08985 7.76367,17.08985 0,0 -0.21494,2.34496 -2.24023,5.85546 -2.02526,3.51051 -5.65634,41.27571 -9.10157,49.5918 -3.44523,8.3161 -3.98026,12.77052 -9.02929,32.25391 -5.04904,19.48339 -7.83973,23.10734 -12.5918,35.04687 -4.75204,11.93949 -11.22852,43.30274 -11.22852,43.30274 0,0 -5.22635,-8.07866 -10.27539,-14.07813 -5.04903,-5.99943 -12.77148,-20.61328 -12.77148,-20.61328 0,0 -3.624,2.91112 -6,4.27734 -2.37604,1.36627 -6.41406,1.07032 -6.41406,1.07032 0,0 0.29576,2.25635 1.95898,3.80078 1.66322,1.54443 4.33694,16.0975 10.1582,24.5918 5.82127,8.4942 17.27344,17.08984 17.27344,17.08984 0,0 -0.0625,3.04019 -3.16406,7.07226 -3.10148,4.03208 -3.47266,7.69141 -3.47266,7.69141 0,0 -7.00918,0.31011 -11.84765,15.25977 -4.83852,14.94969 -8.80877,18.98155 -12.7168,21.71093 -3.90799,2.72939 -1.30276,1.55125 -8.80859,10.66993 -7.50584,9.11879 -26.42579,9.24218 -26.42579,9.24218 0,0 4.00323,-11.37803 9.11133,-37.64843 5.10815,-26.2704 8.27775,-64.95005 10.36133,-87.3086 2.08362,-22.35859 1.2832,-47.60156 1.2832,-47.60156 l 1.68164,-0.48242 c 0,0 8.09449,9.61673 30.53321,12.82226 22.43871,3.20553 30.37304,-8.97461 30.37304,-8.97461 0,0 -4.72802,-4.9692 -18.35156,-9.61718 -13.62349,-4.64807 -18.75218,-1.68324 -28.84961,-4.72852 -10.09742,-3.04524 -16.02734,5.28906 -16.02734,5.28906 0,0 -1.52334,-3.04374 -1.6836,-7.21093 -0.16019,-4.16716 1.52177,-12.02113 1.1211,-22.91993 -0.40071,-10.89879 1.35156,-15.84961 1.35156,-15.84961 0,0 3.62883,7.5462 7.16016,14.75391 3.53129,7.20771 5.00549,4.83273 -2.22071,-9.86328 -7.22619,-14.69598 -4.29261,-29.86943 -2.33398,-35.60547 1.95863,-5.73604 2.65854,-9.93193 0.0703,-17.55664 -2.58822,-7.62474 4.89649,-45.40039 4.89649,-45.40039 0,0 7.62472,2.3793 10.98242,2.44922 3.35769,0.07 7.55353,1.32822 13.00976,-6.22656 5.45624,-7.55479 12.52272,-12.80005 16.92969,-14.54883 4.40697,-1.74879 5.03516,-3.91797 5.03516,-3.91797 0,0 -4.68539,-1.67833 -9.58203,-0.2793 -4.89661,1.39903 -16.57948,-1.67846 -22.52539,0.0703 -5.94588,1.74883 -6.93555,-0.81445 -6.93555,-0.81445 l -14.89649,-19.22656 c 0,0 -4.33013,1.38616 -12.64453,-4.84961 -8.31435,-6.23577 -18.87999,-8.31594 -28.58007,-10.39453 -9.70012,-2.07859 -18.63868,-7.35352 -18.63868,-7.35352 0,0 3.92769,-1.75672 6.71875,-2.37695 2.79103,-0.62023 9.09571,-1.86133 9.09571,-1.86133 0,0 -6.51077,-8.16652 -28.32227,-14.16211 -21.81154,-5.99558 -25.53281,-0.5166 -26.66992,-4.03125 -1.13707,-3.51466 -6.09971,-0.30939 -4.75586,-6.51172 1.34381,-6.20233 10.1304,-8.27068 16.84961,-9.09765 6.71917,-0.82698 18.9168,-6.51213 32.14844,-20.88086 13.23163,-14.36875 10.95703,-23.36133 10.95703,-23.36133 0,0 -9.71666,-0.72396 -25.11914,5.375 -15.40245,6.09895 -28.63367,16.46843 -28.83399,29.07812 -0.20016,12.6097 -5.89258,13.58008 -5.89258,13.58008 0,0 -1.33414,-1.79882 -2.40039,-4.03125 -1.06624,-2.23244 0.30007,-5.3035 1.58008,-9.84179 1.28005,-4.53828 4.26847,-18.70176 -7.07226,-38.01758 -11.34074,-19.31584 -25.60742,-17.7793 -25.60743,-17.7793 0,0 3.43798,17.34182 4.82813,29.56055 1.39019,12.21873 5.04846,23.19324 10.31641,25.90039 5.26798,2.70714 10.24308,3.73121 10.3164,13.82812 0.0731,10.09692 -7.24414,22.38868 -7.24414,22.38868 0,0 -2.26654,1.97579 -5.04687,2.19531 -2.7803,0.2195 -5.92614,-1.17082 -21.29102,10.16992 -15.36487,11.34076 -17.34046,24.21875 -18.87695,24.21875 -1.53649,0 -5.78101,-12.07344 -10.24414,-21.6582 -4.46313,-9.58475 -19.09571,-23.7793 -19.09571,-23.7793 0,0 16.75415,0.87918 22.60743,-0.73047 5.85327,-1.60966 14.1212,-10.46406 22.68164,-29.41406 8.5604,-18.95001 8.04883,-43.24024 8.04882,-43.24024 0,0 -13.68213,13.3902 -26.33984,25.16993 -12.65771,11.77974 -12.80515,10.82723 -13.24414,22.16796 -0.43899,11.34073 3.95162,10.24439 1.53711,13.24414 -2.41448,2.99981 -22.02344,-18.80468 -22.02344,-18.80468 l 5.92774,-24.65625 c 0,0 19.55556,-27.34873 18.99218,-34.39063 -0.56333,-7.04191 1.40821,-7.60547 1.40821,-7.60547 0,0 6.75995,-0.28227 14.36523,1.68946 7.60524,1.97174 10.98666,3.66123 21.12695,2.95703 10.14036,-0.70419 16.19675,-7.32209 21.68946,-8.73047 5.49267,-1.40838 11.68945,-6.05664 11.68945,-6.05664 0,0 -17.18298,-12.11261 -25.35156,-11.26758 -8.16862,0.84503 -9.01367,-2.67578 -9.01367,-2.67578 l -42.67383,-36.33594 c 0,0 -1.83107,2.1126 -6.33789,9.01367 -4.50682,6.90107 -3.94369,10.13992 -3.66211,23.51954 0.28169,13.37956 11.63867,27.29296 11.63867,27.29296 0,0 -0.80191,1.94404 -1.53125,2.79493 -0.72933,0.85089 -2.94336,2.38281 -2.94336,2.38281 0,0 0.99549,1.10789 1.71485,2.21094 0.71933,1.10305 1.78842,1.47719 -1.3379,8.37109 -3.12627,6.89391 -7.85742,9.70117 -7.85742,9.70117 0,0 -2.40339,-11.62345 -3.28515,-20.60156 -0.88177,-8.97811 -2.16555,-12.58639 -6.33399,-14.0293 -4.1684,-1.44291 -22.125,-28.05664 -22.125,-28.05664 0,0 -2.0831,3.12585 -4.80859,7.93555 -2.72538,4.80971 -2.40425,11.5446 -2.48438,23.08789 -0.0802,11.54328 2.64507,20.60163 4.00782,24.28906 1.36274,3.68744 5.93206,8.97781 16.7539,17.1543 10.82181,8.17649 13.54688,6.97265 13.54688,6.97265 0,0 -2.73962,21.80705 -5.27735,22.77735 -2.53772,0.97031 -8.21204,-4.70236 -13.21289,-7.61328 -5.0008,-2.91092 -24.18117,-10.52344 -32.24219,-10.52344 -8.06091,0 -20.15429,-5.52344 -20.15429,-5.52344 l -1.41797,-7.91211 c 0,0 11.42082,-13.13589 16.12305,-19.18164 4.70226,-6.04575 0.0746,-6.56949 -3.80664,-5.67383 -3.8812,0.89566 -12.91211,19.25782 -12.91211,19.25782 l -2.46289,-16.4961 c 0,0 5.74703,-19.55566 5.22461,-25.97461 -0.52249,-6.41895 -2.98649,-8.50822 -7.46485,-21.27148 C 384.5412,205.77962 371.48046,192.121 371.48046,192.121 Z M 349.59766,403.0918 c 1.99906,0.24 22.22852,10.23506 23.58789,12.07422 1.35937,1.83911 6.79757,10.23554 7.27734,13.7539 0.47977,3.51836 5.43657,19.51043 3.4375,19.99024 -1.99907,0.47977 -5.11615,-3.75745 -11.19336,0.56054 -6.07717,4.318 -3.35853,4.63768 2.63867,9.35547 5.99721,4.7178 8.55469,4.23828 8.55469,4.23828 0,0 1.83915,11.59439 1.35938,24.22852 -0.47978,12.63409 -0.47845,16.07252 0.88085,20.31055 1.35939,4.23802 1.4389,6.71702 1.03907,9.5957 -0.3998,2.87864 -0.95899,8.7168 -0.95899,8.7168 0,0 -15.51303,-9.43625 -21.83008,-9.91602 -6.31702,-0.47981 -11.99414,-3.03906 -11.99414,-3.03906 0,0 6.76378,16.3837 18.49024,30.36523 11.72646,13.98157 15.93595,32.47168 17.13867,46.75391 1.20272,14.28223 4.21094,43.57031 4.21094,43.57031 0,0 -10.25501,-4.08059 -22.40039,-4.97656 -12.14539,-0.89598 -20.70508,-0.9961 -20.70508,-0.9961 0,0 -1.59334,-3.98256 -4.28125,-7.66601 -2.68792,-3.68342 -4.87891,-7.56641 -4.87891,-7.56641 0,0 17.22251,-2.88563 27.17774,-11.14843 9.95524,-8.26285 18.61718,-11.94727 18.61718,-11.94727 0,0 -7.40127,-15.624 -8.74218,-20.46289 -1.34089,-4.83885 -3.6147,-10.31845 -5.83008,-10.72656 -2.21538,-0.40808 -5.18945,-0.4668 -5.18945,-0.4668 0,0 1.04907,10.43533 -1.22461,13.875 -2.27368,3.43967 -12.41719,6.53001 -16.90625,11.31055 -4.48906,4.78057 -9.56055,12.00976 -9.56055,12.00976 0,0 -0.3141,-16.52404 -3.73242,-21.94336 -3.41833,-5.41931 0.64695,-26.18083 -4.10156,-29.37695 -4.74852,-3.19612 -7.16797,9.49609 -7.16797,9.49609 0,0 -2.2877,-52.19292 -9.2461,-69.45507 -6.95839,-17.2622 -12.52482,-21.34418 -13.48437,-12.14844 -0.95955,9.1957 9.51581,27.18722 1.51953,18.87109 -7.99628,-8.31613 -8.07702,-22.5506 -15.43359,-37.34375 -7.35658,-14.79311 -11.99415,-26.22656 -11.99414,-26.22656 0,0 15.19248,5.27631 22.70898,3.19726 7.5165,-2.07904 14.87305,-5.67578 14.87305,-5.67578 0,0 -3.83739,19.74977 4.63867,38.54102 8.47605,18.79124 16.47224,29.18765 24.30859,34.70508 7.83635,5.51743 11.75391,9.67382 11.75391,9.67382 0,0 6.95707,-23.74727 -6.55664,-47.57617 -13.51371,-23.8289 -24.70899,-26.46875 -24.70899,-26.46875 l -0.0801,-11.83398 c 0,0 10.71682,-7.11777 14.79492,-10.23633 4.07811,-3.11856 11.19428,-8.23598 13.19336,-7.99609 z M 225.83594,517.98633 c 1.34971,-0.0111 2.31694,0.34476 5.16406,2.73633 4.14127,3.47867 6.79102,4.7207 6.79102,4.7207 0,0 -3.64453,3.64425 3.89257,10.60156 7.53711,6.95732 10.51953,10.4375 10.51953,10.4375 0,0 -8.86281,5.71478 -14.4121,8.7793 -5.5493,3.06455 -13.33399,6.21094 -13.33399,6.21094 0,0 -8.36612,-9.27548 -12.75586,-21.28516 -4.38974,-12.00968 -6.875,-19.38086 -6.875,-19.38086 0,0 15.57139,-2.73437 18.71875,-2.73437 0.98356,0 1.67751,-0.0809 2.29102,-0.0859 z m 83.50976,16.61719 c 0,0 3.55271,19.65978 4.85547,21.55468 1.30275,1.89491 2.10938,2.58765 2.10938,3.50782 0,0.92012 -0.13086,1.97265 -0.13086,1.97265 0,0 -6.7046,1.88472 -7.53711,-2.45312 -0.83251,-4.3378 -1.75195,-7.58203 -1.75196,-7.58203 0,0 -11.50544,8.77254 -2.89453,25.12304 8.61092,16.35047 20.55274,14.19727 20.55274,14.19727 0,0 -2.35714,12.71254 2.25586,22.04101 4.61299,9.32852 6.50976,11.78711 6.50976,11.78711 0,0 -28.91063,0.19022 -59.16601,-17.96289 -30.2554,-18.15322 -40.48242,-33.10351 -40.48242,-33.10351 0,0 10.89676,-8.05281 15.51562,-13.61914 4.61886,-5.5663 8.29102,-11.36914 8.29102,-11.36914 0,0 11.60563,6.51313 24.04101,6.75 12.43539,0.23697 19.77735,-0.94727 19.77735,-0.94727 0,0 2.25103,-4.2634 4.38281,-10.42188 2.13178,-6.15842 3.67187,-9.4746 3.67187,-9.4746 z m 101.87891,101.46484 c 0.0599,4.5e-4 0.0918,0.004 0.0918,0.004 0,0 6.66127,2.7119 12.91015,5.67187 6.24888,2.96001 16.31055,4.68945 16.31055,4.68945 0,0 -0.22707,1.66672 -14.62109,15.02735 -14.39392,13.36059 -14.32032,18.60156 -14.32032,18.60156 0,0 -1.2662,-1.39909 -3.52734,-9.53906 -2.2611,-8.14001 3.20703,-7.11328 3.20703,-7.11328 0,0 -3.28919,-4.35757 -5.75586,-16.07422 -2.3125,-10.9844 4.80628,-11.27436 5.70508,-11.26758 z m -60.73828,2.03711 c 0,0 15.32401,0.39189 23.3789,1.17773 8.0549,0.78584 20.72657,4.22461 20.72657,4.22461 0,0 3.14225,39.68537 10.21484,51.08008 7.07259,11.39475 14.06751,19.1902 15.79102,23.56055 1.7235,4.3703 4.84179,7.11914 4.84179,7.11914 l -0.25195,4.14453 c 0,0 -2.26222,-1.00446 -3.76953,1.13086 -1.50731,2.13539 -3.76745,15.95257 -3.39063,22.10742 0.37682,6.15485 14.32032,40.44531 14.32032,40.44531 0,0 -20.1728,-21.88858 -29.70118,-34.26562 -9.52834,-12.37701 -6.09074,-9.82336 -3.92968,-32.02344 2.16106,-22.20004 -11.00196,-24.26367 -11.00196,-24.26367 0,0 -4.12465,5.79688 -4.51757,10.80664 -0.39292,5.00973 -2.84961,10.11719 -2.84961,10.11719 0,0 -3.53657,-7.46639 -11.98438,-23.57618 -8.44782,-16.10975 -17.87695,-61.78515 -17.87695,-61.78515 z m 122.74023,12.37695 c 0,0 4.90583,31.06755 27.14453,50.25391 22.23871,19.18632 32.59549,20.71289 37.82813,20.71289 5.23264,0 17.87766,-2.83324 18.0957,12.10156 0.21808,14.9348 -8.28508,21.91073 -10.0293,34.44727 -1.74419,12.5365 -4.36132,51.12695 -4.36132,51.12695 0,0 -15.47924,3.81588 -18.64063,-1.63477 -3.16138,-5.45068 -3.59765,-7.19531 -3.59765,-7.19531 l -6.2129,3.27149 c 0,0 6.1043,6.32242 -4.25195,5.77734 -10.35624,-0.54505 -51.78196,-4.25101 -60.83008,-15.15234 -9.04811,-10.9013 -10.683,-13.30018 -9.91992,-15.48047 0.76309,-2.18026 -1.30873,-7.41321 -3.70703,-10.6836 -2.39826,-3.27038 -3.26982,-11.44539 -2.17969,-18.53125 1.09013,-7.08585 -3.03125,-26.73715 -3.03125,-29.90039 0,-3.16323 0.5,-5.9375 0.5,-5.9375 0,0 -8.70676,-13.12274 -10.3125,-19.09961 -1.60573,-5.9769 -5.79687,-16.68554 -5.79687,-16.68554 0,0 17.65865,-3.16177 24.85351,-8.93946 7.19486,-5.77772 22.89339,-26.59824 27.25391,-27.36132 4.36052,-0.76309 7.19531,-1.08985 7.19531,-1.08985 z m 188.72852,112.23047 c 0,0 -16.18341,18.01155 -19.2793,18.29297 -3.09585,0.28157 -9.00586,6.19141 -9.00586,6.19141 0,0 -0.84348,-4.57274 1.61914,-9.56836 2.46263,-4.99563 2.25196,-7.38868 2.25196,-7.38868 0,0 4.92403,-1.82776 10.34179,-2.32031 5.4178,-0.49251 14.07227,-5.20703 14.07227,-5.20703 z"
         transform="scale(0.26458333)" />
   </g>
   <g style="fill:#db233f">
      <path
         d="m 194.67738,86.365121 c 0,0 2.25098,-2.416503 2.74753,-2.449605 0.49654,-0.0331 0.89413,-0.234444 0.63928,-0.804111 -0.25485,-0.569669 -0.8545,-2.023819 0.10494,-3.313065 0.95944,-1.289246 1.69401,-1.783955 1.5291,-2.878317 -0.1649,-1.094359 -0.46472,-1.903886 -0.46472,-1.903886 0,0 1.82893,-3.088193 1.76896,-4.39243 -0.06,-1.30424 -2.08378,-4.002662 -3.5829,-4.017653 -1.49913,-0.015 -2.51853,0.299826 -4.4524,-1.319228 -1.93387,-1.619052 -1.91888,-1.604063 -3.64287,-0.734571 -1.72399,0.869492 -1.73898,2.143747 -1.85891,3.313062 -0.11993,1.169318 -0.075,1.18431 -0.075,1.18431 l -1.37919,1.244272 c 0,0 0.35979,2.023816 0.22486,3.627879 -0.13491,1.60406 -0.34479,3.17814 0.53969,3.283079 0.88448,0.104939 1.22928,-0.884483 1.93387,-0.07496 0.70459,0.809527 -0.47972,2.128755 -0.31482,3.298071 0.16491,1.169318 0.29983,1.169318 1.46914,0.989422 1.16932,-0.179895 1.48414,-0.374779 1.78396,-0.104939 0.29983,0.269844 0.80953,1.918878 1.49912,2.66844 0.6896,0.749562 1.53032,2.384226 1.53032,2.384226 z" />
      <path
         d="m 219.51698,128.91937 c 0,0 -0.18224,0.72894 -0.67688,1.35375 -0.49464,0.62481 -0.1562,1.95254 0.0781,2.62941 0.23431,0.67688 0.54671,1.50997 2.75959,1.56203 2.21287,0.0521 3.98317,-1.97856 3.98317,-1.97856 0,0 0.3124,0.1562 1.35375,0.13016 1.04135,-0.026 1.82237,-1.22358 2.13477,-1.71823 0.31241,-0.49464 1.01532,-1.22358 1.11946,-2.78561 0.10413,-1.56203 0.10413,-2.81165 0.10413,-2.81165 0,0 1.14549,-0.41654 2.05667,-2.47321 0.91119,-2.05667 0.88515,-3.51457 -0.10413,-4.60798 -0.98929,-1.09342 -2.68148,-1.90047 -3.72283,-2.05668 -1.04136,-0.1562 -1.9265,0.0521 -1.9265,0.0521 0,0 -2.42115,-1.64013 -4.29558,-1.82237 -1.87444,-0.18223 -3.35836,-0.65084 -4.79022,-0.0521 -1.43186,0.59878 -1.45789,2.57734 -1.45789,2.57734 l -0.62482,0.36448 c 0,0 -1.45789,-0.57275 -2.55131,0.59877 -1.09342,1.17153 -2.0046,3.35836 -1.45789,5.20677 0.54671,1.84839 0.81197,2.46294 0.81197,2.46294 0,0 -0.38613,0.14851 -0.17821,0.59404 0.20791,0.44553 1.72272,4.52957 4.32165,4.02463 2.59894,-0.50494 3.063,-1.25004 3.063,-1.25004 z" />
      <path
         d="m 207.84501,176.83915 c 0,0 4.18117,-5.5919 4.59728,-5.86931 0.41611,-0.27741 2.08056,-1.8725 2.16725,-2.49667 0.0867,-0.62417 -0.62417,-0.81488 -0.22539,-1.62977 0.39877,-0.81488 2.11008,-4.77503 2.51315,-5.31246 0.40307,-0.53743 0.3359,-1.43314 0.3359,-1.43314 0,0 -1.24281,0.90691 -1.5899,0.75016 -0.34709,-0.15675 -0.54862,-0.20154 -0.82853,-1.22041 -0.27991,-1.01888 -1.13084,-1.33238 -1.69066,-0.67179 -0.55983,0.66059 -0.50385,1.78023 -1.22042,1.66827 -0.71657,-0.11197 -0.9181,-0.99648 -0.9181,-2.34006 0,-1.34357 -1.28759,-2.38483 -2.75433,-2.19449 -1.46673,0.19033 -3.88516,0.056 -5.13916,1.92578 -1.254,1.86981 0,4.57934 0,4.57934 0,0 -0.98528,2.00416 -1.19802,2.07134 -0.21273,0.0672 -1.45553,2.03775 -1.03007,2.77672 0.42547,0.73896 0.45905,0.72777 0.9629,0.627 0.50383,-0.10077 0.9293,-0.26872 1.42194,0.49264 0.49264,0.76136 0.91811,1.18682 1.44434,2.25048 0.52623,1.06367 1.47793,1.72426 1.90339,2.08254 0.42547,0.35829 1.06367,0.91811 1.06367,1.94818 0,1.03007 0.18476,1.99565 0.18476,1.99565 z" />
      <path
         d="m 176.84226,110.96152 c 0.57659,-0.14948 0.81149,-0.49117 0.81149,-0.49117 0,0 0.72608,0.42711 1.36673,0.3844 0.64066,-0.0427 1.40945,-0.25627 1.68706,-1.32402 0.27762,-1.06777 1.25996,-2.09281 1.75113,-2.11417 0.49117,-0.0213 0.74743,-0.21355 2.02874,-1.64435 1.28131,-1.43079 1.60164,-2.88295 1.60164,-2.88295 0,0 0.007,-0.15769 0.006,-0.40442 -0.002,-0.83901 -0.0866,-2.707602 -0.79621,-2.905631 -0.91828,-0.256265 -2.07146,0.619301 -2.41314,0.256262 -0.34168,-0.363037 -0.46981,-1.580282 0.1922,-2.114161 0.66201,-0.533881 0.49117,-1.324022 0.79014,-1.409443 0.29897,-0.08542 0.34168,-0.875562 -0.0427,-1.11047 -0.38439,-0.234907 -1.02505,-4.612719 -1.62299,-5.509635 -0.59795,-0.896919 -1.04641,-1.751126 -1.94332,-1.067761 -0.89692,0.683366 -2.98973,3.715803 -3.4809,3.779867 -0.49117,0.06407 -0.89692,-0.875562 -2.32771,-0.683366 -1.4308,0.192199 -2.54127,0.918274 -2.4345,2.199585 0.10678,1.28131 1.60164,4.335102 1.28131,4.911693 -0.32032,0.576588 -1.08911,0.469812 -1.98603,0.384392 -0.89691,-0.08542 -0.96669,0.07336 -1.07351,0.239516 -0.10681,0.166153 0.0356,1.222422 0.54594,1.839572 0.51034,0.61715 3.60794,3.90465 3.7741,4.39124 0.16615,0.4866 0.38386,6.53498 0.38386,6.53498 h -1e-5 c 0,0 1.32402,-1.11047 1.90061,-1.25996 z" />
      <path
         d="m 155.45611,114.20352 c 0,0 0.43833,0.3516 0.7621,0.3516 0.32377,0 1.45696,0.11773 2.48713,1.54525 1.03017,1.42753 1.04489,1.61884 1.19206,2.50185 0.14716,0.883 0.0589,1.86903 0.72111,1.81016 0.66226,-0.0589 3.06109,-0.85357 3.59089,-0.25019 0.5298,0.60339 0.72112,0.52981 0.51509,1.79545 -0.20604,1.26564 -0.0589,2.14864 -0.1766,2.70788 -0.11774,0.55923 -0.79471,1.82487 -1.53055,2.13392 -0.73583,0.30906 -2.28109,1.88375 -2.48712,1.98676 -0.20604,0.10302 -0.72112,0.61811 -0.35321,1.13319 0.36792,0.51509 0.47094,1.22149 -0.10301,1.69243 -0.57396,0.47094 -1.64828,1.63356 -1.33923,2.64901 0.30906,1.01546 0.30906,1.01546 0.30906,1.01546 l -1.38338,0.883 c 0,0 -1.70714,-0.55924 -2.41355,-0.58867 -0.7064,-0.0294 -1.9426,0.19132 -2.67844,-0.80942 -0.73584,-1.00074 -0.1766,-2.10449 -0.85357,-3.37013 -0.67697,-1.26564 -1.78073,-2.82562 -2.8992,-3.03165 -1.11847,-0.20604 -2.22223,-1.26564 -1.91318,-1.53054 0.30905,-0.2649 2.11921,-0.72112 2.29582,-1.35394 0.17659,-0.63282 0.23546,-1.81016 -0.38264,-2.70788 -0.6181,-0.89772 -1.20677,-2.8109 -0.80942,-3.09052 0.39735,-0.27962 3.13466,-0.77999 3.38485,-1.36866 0.25018,-0.58867 0.76527,-0.4415 0.86829,-0.85357 0.10301,-0.41207 0.72112,-0.91243 1.13319,-0.9713 0.41207,-0.0589 0.7064,-0.22075 0.91243,-0.13245 0.20604,0.0883 0.80942,0.33848 0.76528,-0.19132 -0.0442,-0.5298 -0.0147,-1.0596 0.13245,-1.32451 0.14716,-0.2649 0.25335,-0.63121 0.25335,-0.63121 z" />
      <path
         d="m 135.20946,62.255979 c 0,0 1.12236,0.245517 2.56039,-0.05261 1.43803,-0.298127 1.84138,-0.01754 1.71862,-0.876845 -0.12276,-0.859309 -0.28059,-1.8063 0.64886,-2.051817 0.92946,-0.245518 2.613,-0.385813 2.99881,-1.508173 0.38581,-1.122362 2.10443,-3.998412 2.06935,-4.647279 -0.0351,-0.648864 -0.59625,-1.911519 -1.22758,-2.718218 -0.63133,-0.806696 0.0799,-4.664451 -1.00352,-5.350912 -1.08345,-0.686462 -2.13382,-0.76917 -3.25036,-0.711274 -1.11653,0.05789 -2.34059,0.405259 -2.60525,0.157141 -0.26466,-0.248118 -1.04168,-2.035884 -2.60318,-2.139294 -1.56148,-0.10341 -2.98854,0.992735 -3.42286,1.406374 -0.43432,0.413639 -1.39604,2.554224 -3.7331,2.523202 -2.33706,-0.03102 -2.39911,0.465344 -2.244,1.685581 0.15512,1.220237 1.01342,2.543884 1.25126,2.833431 0.23785,0.289549 0.0207,2.357747 1.33399,4.136398 1.31331,1.778648 2.16127,3.381502 2.56457,4.849923 0.4033,1.468422 0.66182,1.675241 0.66182,1.675241 0,0 -0.97205,1.654559 -1.20989,2.233652 -0.23785,0.579097 -0.63081,1.582174 -0.63081,1.582174 0,0 0.62046,0.0517 0.78592,-0.09307 0.16545,-0.144775 0.56875,-0.227502 0.82728,0.02069 0.25853,0.248182 1.80967,-0.217162 1.93376,-0.692846 0.1241,-0.475686 2.57592,-2.261462 2.57592,-2.261462 z" />
      <path
         d="m 91.411024,98.173126 c 0,0 3.433607,1.261324 4.835078,2.943094 1.401472,1.68176 2.060527,2.42906 2.691971,3.423 0.631444,0.99394 1.169347,2.1399 2.911667,1.87095 1.74232,-0.26895 3.80036,-0.26895 3.49633,-2.67779 -0.30403,-2.40885 -0.67822,-2.70118 0.59637,-3.893914 1.27458,-1.192728 3.23907,-3.168917 4.2681,-5.121719 1.02902,-1.952802 2.23344,-4.19794 1.04071,-5.741472 -1.19273,-1.543534 -1.90603,-2.034656 -1.96449,-2.89997 -0.0585,-0.865312 -1.0758,-2.233444 -2.38546,-2.210057 -1.30967,0.02339 -2.09313,0.67822 -2.63103,-0.397576 -0.53789,-1.075796 -1.98788,-1.473372 -3.27415,-0.877007 -1.286281,0.596363 -2.595944,1.47337 -2.654412,1.718932 -0.05847,0.245563 0.409271,0.841928 -0.37419,0.783461 -0.783457,-0.05847 -3.858828,0.268948 -4.560435,0.701606 -0.701606,0.432657 -2.911663,2.034656 -3.051984,3.753588 -0.140322,1.718934 -0.467736,3.005211 1.122569,3.730204 1.590307,0.724993 1.882642,2.818114 0.900393,3.835442 -0.982248,1.017329 -0.967037,1.059228 -0.967037,1.059228 z" />
      <path
         d="m 125.90192,166.73813 c 0,0 0.75731,-2.76707 1.86414,-4.54383 1.10683,-1.77675 2.38842,-3.8739 2.70882,-5.97106 0.3204,-2.09715 0.26214,-5.89824 0,-6.87399 -0.26214,-0.97576 -0.68449,-1.92239 -1.19421,-2.40299 -0.50973,-0.4806 -1.77675,-1.22334 -3.07291,-1.19421 -1.29616,0.0291 -4.04867,0.53885 -4.89336,0.84469 -0.84468,0.30583 -2.94183,1.03401 -3.67001,1.66024 -0.72818,0.62623 -0.77187,1.74763 -1.17965,2.16997 -0.40778,0.42234 -1.41266,1.06314 -1.36897,1.63112 0.0437,0.56797 0.56798,2.41755 1.15052,2.83989 0.58254,0.42234 1.20877,0.34953 1.29615,1.80588 0.0874,1.45636 0.11651,3.36418 1.32529,4.47101 1.20877,1.10683 7.03419,5.56328 7.03419,5.56328 z" />
      <path
         d="m 71.179223,94.917693 c 0,0 0.08794,-1.376021 -0.103303,-1.47727 -0.191247,-0.101248 -0.472488,-0.584988 0.045,-0.88873 0.517488,-0.303744 0.02249,-1.248722 0.41624,-1.473718 0.393742,-0.224994 0.686234,-3.217429 1.856208,-4.151157 1.169974,-0.93373 2.112428,-3.836664 1.682546,-5.597136 -0.429882,-1.760471 -0.851313,-2.985214 -1.554705,-3.462514 -0.703392,-0.477303 -1.565883,-0.644777 -1.565883,-0.644777 0,0 0.125605,-3.860281 -1.373291,-4.3962 -1.498894,-0.535919 -4.960197,-2.258777 -6.976732,-0.546412 -2.016532,1.712365 -2.55728,2.55728 -2.602341,3.886615 -0.04506,1.329336 0.732261,3.007903 0.732261,3.007903 0,0 -3.537384,0.09013 -4.528751,1.23921 -0.99137,1.149085 -0.608341,1.295538 0.30417,2.072862 0.912508,0.777322 7.24522,6.691416 7.345929,7.043899 0.100708,0.352481 6.322652,5.387425 6.322652,5.387425 z" />
      <path
         d="m 49.739557,114.29109 c 0,0 -2.787197,0.97154 -3.0261,2.45274 -0.238903,1.48119 -0.318537,3.45612 -1.035246,3.5039 -0.716708,0.0478 -0.76449,0.55744 -0.04778,0.63708 0.716709,0.0796 0.939684,0.46187 0.939684,0.46187 0,0 -0.907831,0.20705 -1.704171,-0.0956 -0.796343,-0.30261 -1.67232,-0.30261 -0.875977,1.21044 0.796343,1.51306 2.771272,2.9624 2.197904,3.31279 -0.573365,0.35039 -2.134198,-1.46527 -2.181979,-1.76788 -0.04778,-0.30261 -0.07963,-0.8282 -0.891902,-0.31854 -0.812271,0.50966 -0.700784,-0.27076 -0.812271,0.90783 -0.111488,1.17859 -0.350391,1.08303 -1.146734,1.4812 -0.796342,0.39817 -1.799732,0.33446 -0.621146,2.34125 1.178587,2.00678 4.746202,5.86108 5.717741,6.25925 0.971537,0.39817 1.083024,0.28668 1.847514,0.12741 0.76449,-0.15927 5.749594,-0.97153 7.119302,-2.00678 1.369709,-1.03525 2.166052,-2.94647 2.166052,-3.64725 0,-0.70078 -0.891903,-1.73603 -0.939684,-3.265 -0.04778,-1.52898 0.653002,-2.24569 -0.477806,-3.63133 -1.130805,-1.38563 -2.468663,-2.73941 -3.057956,-3.13758 -0.589293,-0.39818 -2.389026,-1.44935 -2.771272,-2.91462 -0.382244,-1.46527 -0.398172,-1.91122 -0.398172,-1.91122 z" />
      <path
         d="m 75.658109,186.3874 c 0,0 -0.328409,-3.25052 0.147727,-4.96712 0.476136,-1.71659 0.137829,-4.43558 -1.440937,-5.76375 -1.578766,-1.32817 -2.944524,-1.87948 -2.944524,-1.87948 0,0 -0.375896,-3.6462 -1.566238,-4.53582 -1.190339,-0.88962 -2.11755,-1.07757 -3.182591,0.86456 -1.06504,1.94213 -2.105022,1.26552 -3.696316,-0.0752 -1.591297,-1.3407 -2.40574,-1.3407 -1.829366,1.00239 0.576376,2.34309 1.16528,3.38307 1.503587,3.7715 0.338307,0.38843 0.639024,0.38843 0.639024,0.38843 l -0.02506,0.62649 c 0,0 -1.786032,0.77006 -2.403678,0.87061 -0.617646,0.10054 -0.703829,0.0718 -0.703829,0.0718 0,0 -0.229822,0.58891 0.517099,1.65184 0.746921,1.06293 2.800956,4.23735 4.510257,5.53009 1.709301,1.29275 4.251706,3.1026 5.946642,2.90151 1.69494,-0.2011 4.528201,-0.45789 4.528201,-0.45789 z" />
      <path
         d="m 138.47448,211.61315 c 0,0 0.64504,0.47857 2.05995,0.62422 1.41492,0.14566 2.05995,0.0208 2.35126,-0.85311 0.29131,-0.87392 0.93634,-3.32921 0.93634,-3.87021 0,-0.541 -0.22888,-1.33169 -0.89472,-1.78945 -0.66585,-0.45777 -1.20684,-0.8323 -0.66585,-1.43572 0.541,-0.60343 -0.14565,-0.95715 0.41615,-1.29007 0.56181,-0.33293 4.3904,-3.64133 4.3904,-4.0991 0,-0.45776 -0.0624,-0.74907 -1.51895,-0.8323 -1.45653,-0.0832 -5.07705,-0.0208 -5.07705,-0.0208 0,0 0.16646,-2.2056 -0.70746,-3.32921 -0.87391,-1.12361 -1.18603,-1.08199 -1.87268,-0.24969 -0.68665,0.8323 -0.68665,0.33292 -1.29007,-1.01957 -0.60342,-1.3525 -2.16399,-2.97549 -3.89102,-1.41492 -1.72703,1.56057 -0.49938,1.33169 -2.14318,2.24722 -1.6438,0.91553 -1.31088,1.26926 -3.32921,1.51896 -2.01834,0.24969 -0.83231,3.22517 -1.3525,3.45405 -0.52019,0.22889 -3.20437,0.89473 -3.82859,1.78946 -0.62423,0.89472 -1.89349,3.26679 -0.64504,4.47363 1.24846,1.20684 1.85188,1.6438 1.24846,1.87268 -0.60342,0.22888 -1.12361,1.43572 -0.24969,2.24722 0.87391,0.81149 3.47486,1.6438 4.59847,1.49814 1.12361,-0.14565 2.20561,-0.58261 2.37207,0.31212 0.16646,0.89473 2.30964,3.20437 3.3084,3.89102 0.99877,0.68665 5.03544,2.05995 5.49321,0.0832 0.45776,-1.97672 0.2913,-3.80779 0.2913,-3.80779 z" />
   </g>
</svg>
